<?xml version="1.0" encoding="iso-8859-1"?>
<!-- Generator: Adobe Illustrator 19.0.0, SVG Export Plug-In . SVG Version: 6.00 Build 0)  -->
<svg version="1.1" id="Capa_1" xmlns="http://www.w3.org/2000/svg" xmlns:xlink="http://www.w3.org/1999/xlink" x="0px" y="0px"
	 viewBox="0 0 512 512" style="enable-background:new 0 0 512 512;" xml:space="preserve">
<g>
	<g>
		<path d="M256,91c-44.006,0-85.423,17.181-116.621,48.379S91,211.994,91,256c0,8.284,6.716,15,15,15s15-6.716,15-15
			c0-35.993,14.061-69.876,39.592-95.408C186.124,135.061,220.007,121,256,121c8.284,0,15-6.716,15-15S264.284,91,256,91z"/>
	</g>
</g>
<g>
	<g>
		<path d="M406,241c-8.284,0-15,6.716-15,15c0,35.993-14.061,69.876-39.592,95.408C325.876,376.939,291.993,391,256,391
			c-8.284,0-15,6.716-15,15s6.716,15,15,15c44.006,0,85.423-17.181,116.621-48.379S421,300.006,421,256
			C421,247.716,414.284,241,406,241z"/>
	</g>
</g>
<g>
	<g>
		<path d="M256,181c-41.355,0-75,33.645-75,75s33.645,75,75,75s75-33.645,75-75S297.355,181,256,181z M256,301
			c-24.813,0-45-20.187-45-45s20.187-45,45-45s45,20.187,45,45S280.813,301,256,301z"/>
	</g>
</g>
<g>
	<g>
		<circle cx="256" cy="256" r="15"/>
	</g>
</g>
<g>
	<g>
		<path d="M437.02,74.981C388.667,26.629,324.38,0,256,0S123.333,26.629,74.981,74.98C26.629,123.333,0,187.62,0,256
			s26.629,132.667,74.98,181.019C123.333,485.371,187.62,512,256,512s132.667-26.629,181.019-74.98
			C485.371,388.667,512,324.38,512,256S485.371,123.333,437.02,74.981z M415.806,415.806C373.121,458.492,316.367,482,256,482
			s-117.121-23.508-159.806-66.194C53.508,373.121,30,316.367,30,256S53.508,138.879,96.194,96.194
			C138.879,53.508,195.633,30,256,30s117.121,23.508,159.806,66.194C458.492,138.879,482,195.633,482,256
			S458.492,373.121,415.806,415.806z"/>
	</g>
</g>
<g>
</g>
<g>
</g>
<g>
</g>
<g>
</g>
<g>
</g>
<g>
</g>
<g>
</g>
<g>
</g>
<g>
</g>
<g>
</g>
<g>
</g>
<g>
</g>
<g>
</g>
<g>
</g>
<g>
</g>
</svg>
