<?xml version="1.0" encoding="iso-8859-1"?>
<!-- Generator: Adobe Illustrator 19.0.0, SVG Export Plug-In . SVG Version: 6.00 Build 0)  -->
<svg version="1.1" id="Capa_1" xmlns="http://www.w3.org/2000/svg" xmlns:xlink="http://www.w3.org/1999/xlink" x="0px" y="0px"
	 viewBox="0 0 479.994 479.994" style="enable-background:new 0 0 479.994 479.994;" xml:space="preserve">
<g>
	<g>
		<rect x="247.994" y="107.997" width="16" height="16"/>
	</g>
</g>
<g>
	<g>
		<path d="M415.994,3.997h-136v16h136c26.51,0,48,21.49,48,48s-21.49,48-48,48h-29.016c1.291-5.248,2.323-10.581,3.096-16h25.92
			c17.673,0,32-14.327,32-32s-14.327-32-32-32h-136v16h136c8.837,0,16,7.163,16,16s-7.163,16-16,16h-24.408
			c0.128-2.672,0.408-5.296,0.408-8c0-4.418-3.582-8-8-8h-200C82.374,68-0.003,150.383,0,252.003c0,2.233,0.041,4.466,0.122,6.698
			c3.472,97.76,87.872,177.296,188.088,177.296h115.384c12.141,24.47,37.083,39.963,64.4,40h40c4.418,0,8-3.582,8-8
			c-0.036-26.995-15.169-51.702-39.2-64c24.031-12.298,39.164-37.005,39.2-64c0-4.418-3.582-8-8-8h-40
			c-29.848,0.058-56.57,18.509-67.2,46.4l-89.504-31.6c-21.136-7.49-35.271-27.472-35.296-49.896v-4.904
			c0.026-26.499,21.501-47.974,48-48c73.058-0.105,137.701-47.34,160-116.912v4.912h32c35.33-0.04,63.96-28.67,64-64
			C479.954,32.667,451.324,4.037,415.994,3.997z M367.994,347.997h31.432c-4.013,27.535-27.606,47.965-55.432,48h-31.432
			C316.575,368.462,340.168,348.032,367.994,347.997z M343.994,411.997c27.826,0.035,51.419,20.465,55.432,48h-31.432
			c-27.826-0.035-51.419-20.465-55.432-48H343.994z M51.69,353.445c-21.714-27.167-34.181-60.561-35.584-95.312
			c-1.332-34.437,8.036-68.44,26.816-97.336l124.104,102.176c-4.617,8.978-7.028,18.928-7.032,29.024v4.904
			c0,1.96,0.288,3.864,0.456,5.784L51.69,353.445z M206.626,362.117l89.368,31.544v26.336h-95.16L206.626,362.117z M191.314,354.397
			l-6.52,65.432c-46.258-1.002-90.216-20.368-122.176-53.824l101.04-47.16C168.64,333.456,178.378,345.974,191.314,354.397z
			 M176.1,249.69L52.266,147.741c3.392-4.267,7.003-8.4,10.832-12.4c31.568-32.948,75.267-51.507,120.896-51.344h8v152h1.088
			C186.682,239.56,180.939,244.191,176.1,249.69z M223.994,227.997c-5.401,0.019-10.778,0.726-16,2.104V83.997h167.792
			C371.433,164.679,304.793,227.898,223.994,227.997z"/>
	</g>
</g>
<g>
</g>
<g>
</g>
<g>
</g>
<g>
</g>
<g>
</g>
<g>
</g>
<g>
</g>
<g>
</g>
<g>
</g>
<g>
</g>
<g>
</g>
<g>
</g>
<g>
</g>
<g>
</g>
<g>
</g>
</svg>
